# xmcd
#
# Track frame offsets:
#   150
#   14756
#   28447
#   42397
#   56612
#   74017
#   89219
#   102165
#   116675
#   128225
#
# Disc length: 2024 seconds
#
# Revision: 0
# Processed by: cddbd v1.4PL0 Copyright (c) Steve Scherf et al.
# Submitted via: CD-Datenbank 4.*
#
DISCID=9c07e60a
DTITLE=Lacy J. Dalton - Survivor
DYEAR=1989
DGENRE=Country
TTITLE0=I´m a survivor
TTITLE1=Walking wounded
TTITLE2=A diamond all the time
TTITLE3=Still crazy after all these years
TTITLE4=Old friends
TTITLE5=Turn to the one
TTITLE6=The heart
TTITLE7=Me and these arms
TTITLE8=They don´t make them like they used to
TTITLE9=Hard luck act
EXTD=
EXTT0=
EXTT1=
EXTT2=
EXTT3=
EXTT4=
EXTT5=
EXTT6=
EXTT7=
EXTT8=
EXTT9=
PLAYORDER=
